<svg xmlns="http://www.w3.org/2000/svg" version="1.1" xmlns:xlink="http://www.w3.org/1999/xlink" xmlns:svgjs="http://svgjs.dev/svgjs" width="1500" height="1500" viewBox="0 0 1500 1500"><rect width="1500" height="1500" fill="#000000"></rect><g transform="matrix(0.6666666666666666,0,0,0.6666666666666666,249.39436519522388,501.4332442252069)"><svg viewBox="0 0 396 196" data-background-color="#ffffff" preserveAspectRatio="xMidYMid meet" height="742" width="1500" xmlns="http://www.w3.org/2000/svg" xmlns:xlink="http://www.w3.org/1999/xlink"><g id="tight-bounds" transform="matrix(1,0,0,1,0.24008861730862918,0.4887145522765195)"><svg viewBox="0 0 395.52 195.02257089544696" height="195.02257089544696" width="395.52"><g><svg viewBox="0 0 395.52 195.02257089544696" height="195.02257089544696" width="395.52"><g><svg viewBox="0 0 395.52 195.02257089544696" height="195.02257089544696" width="395.52"><g><svg viewBox="0 0 395.52 195.02257089544696" height="195.02257089544696" width="395.52"><g id="textblocktransform"><svg viewBox="0 0 395.52 195.02257089544696" height="195.02257089544696" width="395.52" id="textblock"><g><svg viewBox="0 0 395.52 154.60438536168385" height="154.60438536168385" width="395.52"><path d="M394.594 33.16C392.735 17.112 387.435 12.65 387.435 12.65 371.165-3.879 350.86-0.316 332.619 2.059 300.414 2.155 268.339 5.686 236.208 7.579 168.767 7.868 100.749 3.118 33.643 14.833 27.339 18.428-6.54 15.539 1.121 35.214 3.129 43.398 10.456 52.481 10.232 59.992 11.236 61.308 12.631 58.291 13.226 60.184 15.309 65.288 18.711 62.88 21.501 65.897 17.614 73.953 20.403 80.661 23.062 87.69 18.377 89.52 12.371 88.653 9.675 94.719 9.396 99.116 7.89 98.282 6.235 98.089 5.026 97.961 2.59 98.442 2.999 99.823 4.394 104.541-1.594 107.269 2.162 111.891-0.422 116.898 3.948 121.23 3.353 126.655 3.278 127.746 3.687 128.677 4.338 128.933 7.22 130.314 3.018 133.01 3.464 135.93 33.029 155.894 65.104 142.093 95.394 151.272 103.259 144.853 97.346 153.551 100.489 152.203 102.943 150.63 104.728 157.146 107.499 153.455 107.927 152.395 107.276 149.892 108.8 150.373 109.6 150.63 110.307 150.566 110.418 149.09 110.586 146.875 109.117 148.255 108.726 147.1 112.947 141.258 111.906 155.156 115.866 154.578 115.68 152.877 114.528 150.438 116.889 150.759 119.232 148.319 119.306 146.297 121.389 151.786 121.463 152.973 121.835 153.808 122.43 154.385 128.938 148.416 135.409 156.504 142.233 153.808 146.417 150.855 150.433 155.412 154.672 154.289 156.16 153.39 157.666 151.786 159.098 154.482 176.632 155.059 195.319 152.652 211.943 154.578 256.364 150.983 303.836 156.054 350.674 151.304 361.719 149.475 373.192 146.875 383.958 144.789 383.958 144.789 392.679 139.076 392.679 113.399S394.538 90.932 394.817 70.487C395.096 50.042 396.398 49.208 394.538 33.16Z" opacity="1" fill="#ffffff" data-fill-palette-color="tertiary"></path><g transform="matrix(1,0,0,1,55.76832,26.068561146666667)"><svg width="283.98335999999995" viewBox="2.6 -49.300889805524996 188.59 68.050889805525" height="102.46726306835052" data-palette-color="#ffffff"><path d="M14.55 0.65L14.55 0.65Q9.7 0.6 6.65-1.53 3.6-3.65 2.6-7.2L2.6-7.2Q3.15-8.15 4.38-8.72 5.6-9.3 6.7-9.2L6.7-9.2Q7.6-6.5 9.7-5.1 11.8-3.7 14.8-3.75L14.8-3.75Q18-3.8 19.95-5.43 21.9-7.05 21.9-9.85L21.9-9.85Q21.9-14.1 17.45-15.35L17.45-15.35 10.8-17.2Q7.3-18.2 5.3-20.63 3.3-23.05 3.3-26.4L3.3-26.4Q3.3-29.4 4.83-31.75 6.35-34.1 9.03-35.43 11.7-36.75 15.15-36.75L15.15-36.75Q19-36.75 22.08-35.13 25.15-33.5 26.4-30.85L26.4-30.85Q25.95-30.05 24.93-29.28 23.9-28.5 22.7-28.1L22.7-28.1Q20.25-32.35 15-32.35L15-32.35Q11.9-32.35 9.95-30.78 8-29.2 8-26.7L8-26.7Q8-22.7 13.15-21.25L13.15-21.25 19.05-19.65Q22.6-18.7 24.6-16.13 26.6-13.55 26.6-9.9L26.6-9.9Q26.6-6.7 25.03-4.3 23.45-1.9 20.73-0.63 18 0.65 14.55 0.65ZM28.8 0.7L28.8 0.7Q28.15 0.7 27.75 0.1 27.35-0.5 27.35-1.45L27.35-1.45Q27.35-2.45 27.82-3.03 28.3-3.6 29.1-3.6L29.1-3.6Q31.3-3.6 33.32-5.58 35.35-7.55 37.85-12.2L37.85-12.2 37.85-38.95Q37.85-43.95 39.97-46.65 42.1-49.35 46.15-49.3L46.15-49.3Q49.85-49.25 51.92-46.5 54-43.75 54-39.35L54-39.35Q54-36 52.87-32 51.75-28 49.8-24.2L49.8-24.2Q50.5-24.3 51.25-24.3L51.25-24.3Q54.5-24.3 56.45-22.35 58.4-20.4 58.4-17.2L58.4-17.2Q58.4-14.6 56.55-12.6 54.7-10.6 51.6-9.6L51.6-9.6Q52.6-8.9 53.45-7.95L53.45-7.95 55.1-6.05Q57.25-3.6 59.65-3.6L59.65-3.6Q60.3-3.6 60.7-3 61.1-2.4 61.1-1.4L61.1-1.4Q61.1 0.7 59.25 0.7L59.25 0.7Q57.6 0.7 55.97-0.18 54.35-1.05 52.85-2.6L52.85-2.6 50.75-4.85Q49.55-6.15 48.5-6.88 47.45-7.6 46.07-7.88 44.7-8.15 42.5-8.15L42.5-8.15Q42.45-7.35 42.45-6.55L42.45-6.55 42.45 0Q41.95 0.15 41.35 0.25 40.75 0.35 40.2 0.35L40.2 0.35Q39.05 0.35 37.85 0L37.85 0 37.85-4.1Q35.8-1.45 33.67-0.38 31.55 0.7 28.8 0.7ZM42.3-39L42.3-39 42.3-19.7Q44.55-23.15 46.17-26.65 47.8-30.15 48.67-33.43 49.55-36.7 49.55-39.4L49.55-39.4Q49.55-42.2 48.62-43.68 47.7-45.15 45.95-45.15L45.95-45.15Q42.3-45.15 42.3-39ZM50.45-20.35L50.45-20.35Q47.8-20.35 45.82-18 43.85-15.65 43-11.8L43-11.8Q43.85-11.7 44.95-11.7L44.95-11.7Q47.55-11.7 49.6-12.4 51.65-13.1 52.82-14.3 54-15.5 54-17L54-17Q54-18.5 53.02-19.43 52.05-20.35 50.45-20.35ZM59.65-3.6L59.65-3.6Q60.7-3.6 61.9-4.25 63.1-4.9 64.15-6.25L64.15-6.25Q65.4-7.95 65.97-10.15 66.55-12.35 66.7-14.6L66.7-14.6 66.7-23.6Q67.15-23.75 67.75-23.85 68.35-23.95 69-23.95L69-23.95Q70.15-23.95 71.25-23.6L71.25-23.6 71.25-9.2Q71.25-6.55 72.07-5.08 72.9-3.6 74.85-3.6L74.85-3.6Q75.7-3.6 76-2.9 76.3-2.2 76.3-1.4L76.3-1.4Q76.3-0.6 75.87 0.05 75.45 0.7 74.5 0.7L74.5 0.7Q69.3 0.7 67.75-4.2L67.75-4.2Q67.05-3.05 66.25-2.25L66.25-2.25Q64.9-0.9 63.12-0.1 61.35 0.7 59.3 0.7L59.3 0.7Q58.6 0.7 58.22 0.03 57.85-0.65 57.85-1.45L57.85-1.45Q57.85-2.3 58.27-2.95 58.7-3.6 59.65-3.6ZM69.05-30.8L69.05-30.8Q67.65-30.8 66.65-31.8 65.65-32.8 65.65-34.2L65.65-34.2Q65.65-35.7 66.62-36.65 67.6-37.6 69.05-37.6L69.05-37.6Q70.55-37.6 71.5-36.65 72.45-35.7 72.45-34.2L72.45-34.2Q72.45-32.75 71.47-31.78 70.5-30.8 69.05-30.8ZM74.49 0.7L74.49 0.7Q73.84 0.7 73.44 0.1 73.04-0.5 73.04-1.45L73.04-1.45Q73.04-2.45 73.52-3.03 73.99-3.6 74.79-3.6L74.79-3.6Q76.39-3.6 78.24-4.75 80.09-5.9 81.84-7.9L81.84-7.9Q81.44-9.75 81.22-12.25 80.99-14.75 80.89-18.3 80.79-21.85 80.79-26.85L80.79-26.85 80.84-26.85 80.79-26.9Q80.79-31.35 80.89-34.45 80.99-37.55 81.29-39.65 81.59-41.75 82.07-43.23 82.54-44.7 83.29-45.9L83.29-45.9Q84.39-47.7 86.02-48.5 87.64-49.3 89.59-49.3L89.59-49.3Q93.49-49.3 95.59-45.85 97.69-42.4 97.69-36.35L97.69-36.35Q97.69-29.1 94.84-21.45 91.99-13.8 86.69-6.85L86.69-6.85Q87.39-5.2 88.74-4.38 90.09-3.55 91.84-3.55L91.84-3.55Q92.54-3.55 92.97-2.98 93.39-2.4 93.39-1.4L93.39-1.4Q93.39 0.7 91.54 0.7L91.54 0.7Q88.84 0.7 86.74-0.45 84.64-1.6 83.49-3.4L83.49-3.4Q79.34 0.7 74.49 0.7ZM85.24-26.6L85.24-26.6Q85.24-21.35 85.32-17.95 85.39-14.55 85.54-12.35L85.54-12.35Q89.34-18.65 91.29-24.68 93.24-30.7 93.24-36.4L93.24-36.4Q93.24-40.55 92.29-42.78 91.34-45 89.59-45L89.59-45Q87.64-45 86.64-42.7L86.64-42.7Q86.14-41.5 85.82-39.68 85.49-37.85 85.37-34.75 85.24-31.65 85.24-26.6ZM96.54 0.7L96.54 0.7Q95.89 0.7 95.49 0.1 95.09-0.5 95.09-1.45L95.09-1.45Q95.09-2.45 95.57-3.03 96.04-3.6 96.84-3.6L96.84-3.6Q98.44-3.6 100.29-4.75 102.14-5.9 103.89-7.9L103.89-7.9Q103.49-9.75 103.27-12.25 103.04-14.75 102.94-18.3 102.84-21.85 102.84-26.85L102.84-26.85 102.89-26.85 102.84-26.9Q102.84-31.35 102.94-34.45 103.04-37.55 103.34-39.65 103.64-41.75 104.12-43.23 104.59-44.7 105.34-45.9L105.34-45.9Q106.44-47.7 108.07-48.5 109.69-49.3 111.64-49.3L111.64-49.3Q115.54-49.3 117.64-45.85 119.74-42.4 119.74-36.35L119.74-36.35Q119.74-29.1 116.89-21.45 114.04-13.8 108.74-6.85L108.74-6.85Q109.44-5.2 110.79-4.38 112.14-3.55 113.89-3.55L113.89-3.55Q114.59-3.55 115.02-2.98 115.44-2.4 115.44-1.4L115.44-1.4Q115.44 0.7 113.59 0.7L113.59 0.7Q110.89 0.7 108.79-0.45 106.69-1.6 105.54-3.4L105.54-3.4Q101.39 0.7 96.54 0.7ZM107.29-26.6L107.29-26.6Q107.29-21.35 107.37-17.95 107.44-14.55 107.59-12.35L107.59-12.35Q111.39-18.65 113.34-24.68 115.29-30.7 115.29-36.4L115.29-36.4Q115.29-40.55 114.34-42.78 113.39-45 111.64-45L111.64-45Q109.69-45 108.69-42.7L108.69-42.7Q108.19-41.5 107.87-39.68 107.54-37.85 107.42-34.75 107.29-31.65 107.29-26.6ZM137.19 0.7L137.19 0.7Q130.44 0.7 126.96-3.23 123.49-7.15 123.49-14.8L123.49-14.8 123.49-36.1Q124.69-36.45 125.79-36.45L125.79-36.45Q127.09-36.45 128.14-36.1L128.14-36.1 128.14-15.15Q128.14-3.95 137.19-3.95L137.19-3.95Q146.19-3.95 146.19-15.15L146.19-15.15 146.19-36.1Q147.24-36.45 148.54-36.45L148.54-36.45Q149.64-36.45 150.84-36.1L150.84-36.1 150.84-14.8Q150.84-7.15 147.39-3.23 143.94 0.7 137.19 0.7ZM155.09 0.7L155.09 0.7Q154.28 0.7 153.89 0.03 153.49-0.65 153.49-1.45L153.49-1.45Q153.49-2.3 153.94-2.95 154.39-3.6 155.39-3.6L155.39-3.6Q157.09-3.6 158.51-5.13 159.94-6.65 161.11-9.05 162.28-11.45 163.24-14.15L163.24-14.15Q164.03-16.45 164.99-18.95 165.94-21.45 166.59-23.85L166.59-23.85Q167.59-24.1 168.94-24.05 170.28-24 171.19-23.6L171.19-23.6 171.49-20.15Q174.19-24.3 178.69-24.3L178.69-24.3Q182.39-24.3 184.54-21.73 186.69-19.15 186.69-14.6L186.69-14.6 186.69-8.75Q186.69-6 187.41-4.8 188.14-3.6 189.74-3.6L189.74-3.6Q190.44-3.6 190.81-3 191.19-2.4 191.19-1.4L191.19-1.4Q191.19-0.6 190.76 0.05 190.34 0.7 189.39 0.7L189.39 0.7Q182.14 0.7 182.14-8.2L182.14-8.2 182.14-14.6Q182.14-20 178.19-20L178.19-20Q176.44-20 174.99-18.65 173.53-17.3 172.71-15.08 171.89-12.85 171.89-10.1L171.89-10.1 171.89 18.4Q171.39 18.55 170.78 18.65 170.19 18.75 169.64 18.75L169.64 18.75Q168.44 18.75 167.34 18.4L167.34 18.4 167.34-13.35 167.14-12.8Q165.74-8.8 164.16-5.75 162.59-2.7 160.44-1 158.28 0.7 155.09 0.7Z" opacity="1" transform="matrix(1,0,0,1,0,0)" fill="#000000" class="wordmark-text-0" data-fill-palette-color="quaternary" id="text-0"></path></svg></g></svg></g><g transform="matrix(1,0,0,1,85.03680000000001,178.79444695780776)"><svg viewBox="0 0 225.44639999999995 16.228123937639197" height="16.228123937639197" width="225.44639999999995"><g transform="matrix(1,0,0,1,0,0)"><svg width="225.44639999999995" viewBox="3 -39.65 561.18 40.4" height="16.228123937639197" data-palette-color="#bb84e8"><path d="M9.35 0L3 0 3-34.55 19.7-34.55 19-29.8 9.35-29.8 9.35-19.25 17.75-19.25 17.75-14.5 9.35-14.5 9.35 0ZM41.15-26.45L41.15 0 35.8 0 35.5-3.35Q34.25-1.3 32.7-0.28 31.15 0.75 29.1 0.75L29.1 0.75Q26.2 0.75 24.52-1.3 22.85-3.35 22.85-6.65L22.85-6.65 22.85-26.45 29-26.45 29-7Q29-3.9 31.1-3.9L31.1-3.9Q32.3-3.9 33.25-4.83 34.2-5.75 35-7.45L35-7.45 35-26.45 41.15-26.45ZM58-5L60.15-1.2Q57.7 0.75 54.4 0.75L54.4 0.75Q50.95 0.75 49.15-1.23 47.35-3.2 47.35-6.6L47.35-6.6 47.35-22 44.25-22 44.25-26.45 47.35-26.45 47.35-32.3 53.5-33.05 53.5-26.45 58.5-26.45 57.9-22 53.5-22 53.5-6.6Q53.5-4.2 55.55-4.2L55.55-4.2Q56.2-4.2 56.7-4.38 57.2-4.55 58-5L58-5ZM80.84-26.45L80.84 0 75.49 0 75.19-3.35Q73.94-1.3 72.39-0.28 70.84 0.75 68.79 0.75L68.79 0.75Q65.89 0.75 64.22-1.3 62.54-3.35 62.54-6.65L62.54-6.65 62.54-26.45 68.69-26.45 68.69-7Q68.69-3.9 70.79-3.9L70.79-3.9Q71.99-3.9 72.94-4.83 73.89-5.75 74.69-7.45L74.69-7.45 74.69-26.45 80.84-26.45ZM98.19-27.1Q99.34-27.1 100.24-26.75L100.24-26.75 99.24-20.85Q98.24-21.1 97.39-21.1L97.39-21.1Q95.49-21.1 94.39-19.45 93.29-17.8 92.69-14.55L92.69-14.55 92.69 0 86.54 0 86.54-26.45 91.89-26.45 92.34-21.85Q94.19-27.1 98.19-27.1L98.19-27.1ZM121.94-13.85Q121.94-13.4 121.79-11.3L121.79-11.3 108.14-11.3Q108.34-7.2 109.56-5.58 110.79-3.95 113.04-3.95L113.04-3.95Q114.59-3.95 115.84-4.48 117.09-5 118.54-6.15L118.54-6.15 121.09-2.65Q117.59 0.75 112.69 0.75L112.69 0.75Q107.49 0.75 104.71-2.85 101.94-6.45 101.94-13L101.94-13Q101.94-19.55 104.59-23.35 107.24-27.15 112.09-27.15L112.09-27.15Q116.74-27.15 119.34-23.78 121.94-20.4 121.94-13.85L121.94-13.85ZM115.94-15.3L115.94-15.65Q115.94-19.4 115.04-21.13 114.14-22.85 112.14-22.85L112.14-22.85Q110.29-22.85 109.31-21.18 108.34-19.5 108.14-15.3L108.14-15.3 115.94-15.3ZM145.48-27.15Q150.48-27.15 153.26-23.65 156.03-20.15 156.03-13.25L156.03-13.25Q156.03-6.65 153.23-2.95 150.43 0.75 145.48 0.75L145.48 0.75Q140.53 0.75 137.73-2.88 134.93-6.5 134.93-13.25L134.93-13.25Q134.93-19.95 137.73-23.55 140.53-27.15 145.48-27.15L145.48-27.15ZM145.48-22.5Q143.33-22.5 142.33-20.38 141.33-18.25 141.33-13.25L141.33-13.25Q141.33-8.2 142.33-6.08 143.33-3.95 145.48-3.95L145.48-3.95Q147.63-3.95 148.63-6.08 149.63-8.2 149.63-13.25L149.63-13.25Q149.63-18.3 148.63-20.4 147.63-22.5 145.48-22.5L145.48-22.5ZM170.28-33.05Q168.88-33.05 168.21-32.3 167.53-31.55 167.53-30L167.53-30 167.53-26.45 172.58-26.45 171.88-22 167.53-22 167.53 0 161.38 0 161.38-22 158.08-22 158.08-26.45 161.38-26.45 161.38-29.8Q161.38-33.4 163.48-35.55 165.58-37.7 169.48-37.7L169.48-37.7Q172.53-37.7 175.38-36.2L175.38-36.2 173.68-32.2Q171.93-33.05 170.28-33.05L170.28-33.05ZM185.38-34.55L202.53-34.55 201.88-29.8 191.73-29.8 191.73-19.9 200.58-19.9 200.58-15.2 191.73-15.2 191.73-4.8 202.53-4.8 202.53 0 185.38 0 185.38-34.55ZM219.82-37.7L225.97-37.05 225.97 0 220.52 0 220.22-3.05Q217.87 0.75 214.17 0.75L214.17 0.75Q210.07 0.75 207.9-2.93 205.72-6.6 205.72-13.2L205.72-13.2Q205.72-17.4 206.85-20.58 207.97-23.75 209.97-25.45 211.97-27.15 214.57-27.15L214.57-27.15Q217.77-27.15 219.82-24.5L219.82-24.5 219.82-37.7ZM215.92-3.9Q217.07-3.9 218-4.7 218.92-5.5 219.82-7L219.82-7 219.82-19.85Q218.22-22.55 216.17-22.55L216.17-22.55Q212.12-22.55 212.12-13.25L212.12-13.25Q212.12-8.2 213.12-6.05 214.12-3.9 215.92-3.9L215.92-3.9ZM249.82-26.45L249.82 0 244.47 0 244.17-3.35Q242.92-1.3 241.37-0.28 239.82 0.75 237.77 0.75L237.77 0.75Q234.87 0.75 233.2-1.3 231.52-3.35 231.52-6.65L231.52-6.65 231.52-26.45 237.67-26.45 237.67-7Q237.67-3.9 239.77-3.9L239.77-3.9Q240.97-3.9 241.92-4.83 242.87-5.75 243.67-7.45L243.67-7.45 243.67-26.45 249.82-26.45ZM265.02-27.15Q267.17-27.15 268.92-26.43 270.67-25.7 272.27-24.15L272.27-24.15 269.62-20.65Q268.52-21.55 267.54-21.98 266.57-22.4 265.42-22.4L265.42-22.4Q263.17-22.4 262.02-20.28 260.87-18.15 260.87-13.1L260.87-13.1Q260.87-8.2 262.04-6.2 263.22-4.2 265.42-4.2L265.42-4.2Q266.52-4.2 267.42-4.6 268.32-5 269.52-5.85L269.52-5.85 272.27-2.3Q269.07 0.75 265.12 0.75L265.12 0.75Q260.02 0.75 257.19-2.73 254.37-6.2 254.37-13L254.37-13Q254.37-17.4 255.67-20.6 256.97-23.8 259.39-25.48 261.82-27.15 265.02-27.15L265.02-27.15ZM292.22-6.4Q292.22-5.1 292.57-4.48 292.92-3.85 293.72-3.45L293.72-3.45 292.47 0.65Q290.42 0.4 289.19-0.45 287.97-1.3 287.37-3.05L287.37-3.05Q285.07 0.75 280.92 0.75L280.92 0.75Q277.62 0.75 275.67-1.48 273.72-3.7 273.72-7.4L273.72-7.4Q273.72-11.7 276.39-13.95 279.07-16.2 284.17-16.2L284.17-16.2 286.22-16.2 286.22-18.05Q286.22-20.55 285.34-21.58 284.47-22.6 282.52-22.6L282.52-22.6Q280.17-22.6 276.67-21.3L276.67-21.3 275.27-25.3Q277.27-26.2 279.42-26.68 281.57-27.15 283.52-27.15L283.52-27.15Q292.22-27.15 292.22-18.35L292.22-18.35 292.22-6.4ZM282.57-3.7Q284.97-3.7 286.22-7L286.22-7 286.22-12.55 284.77-12.55Q282.22-12.55 281.04-11.4 279.87-10.25 279.87-7.85L279.87-7.85Q279.87-5.8 280.57-4.75 281.27-3.7 282.57-3.7L282.57-3.7ZM309.16-5L311.31-1.2Q308.86 0.75 305.56 0.75L305.56 0.75Q302.11 0.75 300.31-1.23 298.51-3.2 298.51-6.6L298.51-6.6 298.51-22 295.41-22 295.41-26.45 298.51-26.45 298.51-32.3 304.66-33.05 304.66-26.45 309.66-26.45 309.06-22 304.66-22 304.66-6.6Q304.66-4.2 306.71-4.2L306.71-4.2Q307.36-4.2 307.86-4.38 308.36-4.55 309.16-5L309.16-5ZM313.86-26.45L320.01-26.45 320.01 0 313.86 0 313.86-26.45ZM316.91-39.65Q318.56-39.65 319.59-38.6 320.61-37.55 320.61-35.9L320.61-35.9Q320.61-34.3 319.59-33.25 318.56-32.2 316.91-32.2L316.91-32.2Q315.26-32.2 314.24-33.25 313.21-34.3 313.21-35.9L313.21-35.9Q313.21-37.55 314.24-38.6 315.26-39.65 316.91-39.65L316.91-39.65ZM335.11-27.15Q340.11-27.15 342.88-23.65 345.66-20.15 345.66-13.25L345.66-13.25Q345.66-6.65 342.86-2.95 340.06 0.75 335.11 0.75L335.11 0.75Q330.16 0.75 327.36-2.88 324.56-6.5 324.56-13.25L324.56-13.25Q324.56-19.95 327.36-23.55 330.16-27.15 335.11-27.15L335.11-27.15ZM335.11-22.5Q332.96-22.5 331.96-20.38 330.96-18.25 330.96-13.25L330.96-13.25Q330.96-8.2 331.96-6.08 332.96-3.95 335.11-3.95L335.11-3.95Q337.26-3.95 338.26-6.08 339.26-8.2 339.26-13.25L339.26-13.25Q339.26-18.3 338.26-20.4 337.26-22.5 335.11-22.5L335.11-22.5ZM362.56-27.15Q365.41-27.15 367.06-25.1 368.71-23.05 368.71-19.6L368.71-19.6 368.71 0 362.56 0 362.56-18.9Q362.56-20.8 362.03-21.63 361.51-22.45 360.51-22.45L360.51-22.45Q358.41-22.45 356.36-18.5L356.36-18.5 356.36 0 350.21 0 350.21-26.45 355.56-26.45 356.01-23Q357.36-25.1 358.88-26.13 360.41-27.15 362.56-27.15L362.56-27.15ZM401-6.4Q401-5.1 401.35-4.48 401.7-3.85 402.5-3.45L402.5-3.45 401.25 0.65Q399.2 0.4 397.98-0.45 396.75-1.3 396.15-3.05L396.15-3.05Q393.85 0.75 389.7 0.75L389.7 0.75Q386.4 0.75 384.45-1.48 382.5-3.7 382.5-7.4L382.5-7.4Q382.5-11.7 385.18-13.95 387.85-16.2 392.95-16.2L392.95-16.2 395-16.2 395-18.05Q395-20.55 394.13-21.58 393.25-22.6 391.3-22.6L391.3-22.6Q388.95-22.6 385.45-21.3L385.45-21.3 384.05-25.3Q386.05-26.2 388.2-26.68 390.35-27.15 392.3-27.15L392.3-27.15Q401-27.15 401-18.35L401-18.35 401-6.4ZM391.35-3.7Q393.75-3.7 395-7L395-7 395-12.55 393.55-12.55Q391-12.55 389.83-11.4 388.65-10.25 388.65-7.85L388.65-7.85Q388.65-5.8 389.35-4.75 390.05-3.7 391.35-3.7L391.35-3.7ZM419.15-27.15Q422-27.15 423.65-25.1 425.3-23.05 425.3-19.6L425.3-19.6 425.3 0 419.15 0 419.15-18.9Q419.15-20.8 418.62-21.63 418.1-22.45 417.1-22.45L417.1-22.45Q415-22.45 412.95-18.5L412.95-18.5 412.95 0 406.8 0 406.8-26.45 412.15-26.45 412.6-23Q413.95-25.1 415.47-26.13 417-27.15 419.15-27.15L419.15-27.15ZM443.8-37.7L449.95-37.05 449.95 0 444.5 0 444.2-3.05Q441.85 0.75 438.15 0.75L438.15 0.75Q434.05 0.75 431.87-2.93 429.7-6.6 429.7-13.2L429.7-13.2Q429.7-17.4 430.82-20.58 431.95-23.75 433.95-25.45 435.95-27.15 438.55-27.15L438.55-27.15Q441.75-27.15 443.8-24.5L443.8-24.5 443.8-37.7ZM439.9-3.9Q441.05-3.9 441.97-4.7 442.9-5.5 443.8-7L443.8-7 443.8-19.85Q442.2-22.55 440.15-22.55L440.15-22.55Q436.1-22.55 436.1-13.25L436.1-13.25Q436.1-8.2 437.1-6.05 438.1-3.9 439.9-3.9L439.9-3.9ZM474.39-35.25Q477.39-35.25 479.69-34.2 481.99-33.15 483.94-31.05L483.94-31.05 480.99-27.65Q479.44-29.05 477.97-29.75 476.49-30.45 474.84-30.45L474.84-30.45Q472.94-30.45 471.84-29.28 470.74-28.1 470.74-26.2L470.74-26.2Q470.74-24.3 471.89-23.1 473.04-21.9 476.39-20.6L476.39-20.6Q480.69-18.85 482.72-16.5 484.74-14.15 484.74-9.85L484.74-9.85Q484.74-6.9 483.39-4.48 482.04-2.05 479.52-0.65 476.99 0.75 473.64 0.75L473.64 0.75Q470.19 0.75 467.64-0.48 465.09-1.7 462.99-3.95L462.99-3.95 466.19-7.45Q467.99-5.85 469.64-5 471.29-4.15 473.24-4.15L473.24-4.15Q475.54-4.15 476.82-5.58 478.09-7 478.09-9.45L478.09-9.45Q478.09-11.6 476.97-12.98 475.84-14.35 472.79-15.5L472.79-15.5Q468.19-17.35 466.17-19.75 464.14-22.15 464.14-25.75L464.14-25.75Q464.14-28.5 465.47-30.65 466.79-32.8 469.14-34.02 471.49-35.25 474.39-35.25L474.39-35.25ZM488.74-37.05L494.89-37.7 494.89 0 488.74 0 488.74-37.05ZM502.24-26.45L508.24-26.45 501.24-14.75 508.84 0 502.24 0 495.14-14.45 502.24-26.45ZM511.39-26.45L517.54-26.45 517.54 0 511.39 0 511.39-26.45ZM514.44-39.65Q516.09-39.65 517.11-38.6 518.14-37.55 518.14-35.9L518.14-35.9Q518.14-34.3 517.11-33.25 516.09-32.2 514.44-32.2L514.44-32.2Q512.79-32.2 511.76-33.25 510.74-34.3 510.74-35.9L510.74-35.9Q510.74-37.55 511.76-38.6 512.79-39.65 514.44-39.65L514.44-39.65ZM528.83 0.75Q526.13 0.75 524.56-0.93 522.98-2.6 522.98-5.4L522.98-5.4 522.98-37.05 529.13-37.7 529.13-5.65Q529.13-5 529.43-4.6 529.73-4.2 530.33-4.2L530.33-4.2Q530.68-4.2 531.01-4.3 531.33-4.4 531.43-4.4L531.43-4.4 532.63-0.2Q530.93 0.75 528.83 0.75L528.83 0.75ZM541.28 0.75Q538.58 0.75 537-0.93 535.43-2.6 535.43-5.4L535.43-5.4 535.43-37.05 541.58-37.7 541.58-5.65Q541.58-5 541.88-4.6 542.18-4.2 542.78-4.2L542.78-4.2Q543.13-4.2 543.46-4.3 543.78-4.4 543.88-4.4L543.88-4.4 545.08-0.2Q543.38 0.75 541.28 0.75L541.28 0.75ZM555.48-27.15Q560.18-27.15 563.43-24.05L563.43-24.05 561.08-20.7Q559.68-21.7 558.43-22.2 557.18-22.7 555.88-22.7L555.88-22.7Q554.43-22.7 553.6-21.93 552.78-21.15 552.78-19.8L552.78-19.8Q552.78-18.45 553.7-17.63 554.63-16.8 557.43-15.7L557.43-15.7Q560.88-14.35 562.53-12.5 564.18-10.65 564.18-7.55L564.18-7.55Q564.18-3.7 561.48-1.48 558.78 0.75 554.63 0.75L554.63 0.75Q551.93 0.75 549.65-0.23 547.38-1.2 545.68-2.95L545.68-2.95 548.68-6.25Q551.48-3.8 554.38-3.8L554.38-3.8Q556.03-3.8 556.98-4.67 557.93-5.55 557.93-7.1L557.93-7.1Q557.93-8.25 557.53-8.97 557.13-9.7 556.13-10.33 555.13-10.95 553.13-11.7L553.13-11.7Q549.68-13.05 548.2-14.85 546.73-16.65 546.73-19.45L546.73-19.45Q546.73-22.8 549.1-24.98 551.48-27.15 555.48-27.15L555.48-27.15Z" opacity="1" transform="matrix(1,0,0,1,0,0)" fill="#ffffff" class="slogan-text-1" data-fill-palette-color="secondary" id="text-1"></path></svg></g></svg></g></svg></g></svg></g></svg></g></svg></g><defs></defs></svg><rect width="395.52" height="195.02257089544696" fill="none" stroke="none" visibility="hidden"></rect></g></svg></g></svg>